# xmcd
#
# Track frame offsets:
#	150
#	18386
#	30796
#	42947
#	55674
#	75726
#	90250
#	105604
#	116991
#	135760
#	155029
#	171038
#	189325
#
# Disc length: 2697 seconds
#
# Revision: 6
# Processed by: cddbd v1.5.2PL0 Copyright (c) Steve Scherf et al.
# Submitted via: audiograbber 1.83.01
#
DISCID=900a870d
DTITLE=Manfred Krug - Deutsche Schlager
DYEAR=2000
DGENRE=Schlager
TTITLE0=Das Lied ist aus (Frag' nicht warum ich gehe)
TTITLE1=Küss mich, bitte, bitte küss mich
TTITLE2=Dein ist mein ganzes Herz
TTITLE3=Mir geht's gut
TTITLE4=Bei dir war es immer so schön
TTITLE5=Kann denn Liebe Sünde sein?
TTITLE6=Komm zurück (J'attendrai)
TTITLE7=Liebe kleine Schaffnerin
TTITLE8=Mein Mädel ist nur eine Verkäuferin
TTITLE9=Die kleine Stadt will schlafen geh'n
TTITLE10=Bel Ami
TTITLE11=Man kann sein Herz nur einmal verschenken
TTITLE12=Gern hab ich die Frau'n geküßt
EXTD=
EXTT0=
EXTT1=
EXTT2=
EXTT3=
EXTT4=
EXTT5=
EXTT6=
EXTT7=
EXTT8=
EXTT9=
EXTT10=
EXTT11=
EXTT12=
PLAYORDER=
